<?xml version="1.0" encoding="utf-8"?>
<!-- Generator: Adobe Illustrator 19.1.0, SVG Export Plug-In . SVG Version: 6.00 Build 0)  -->
<!DOCTYPE svg PUBLIC "-//W3C//DTD SVG 1.1//EN" "http://www.w3.org/Graphics/SVG/1.1/DTD/svg11.dtd">
<svg version="1.1" id="Layer_1" xmlns="http://www.w3.org/2000/svg" xmlns:xlink="http://www.w3.org/1999/xlink" x="0px" y="0px"
	 width="665px" height="229px" viewBox="0 0 665 229" style="enable-background:new 0 0 665 229;" xml:space="preserve">
<style type="text/css">
	.st0{fill:#FFFFFF;}
</style>
<g>
	<path class="st0" d="M386,154.8c-3.8,0.8-5.2,2.8-6.6,5.5c-4.2,8.1-8.2,16.4-13.2,24c-4.2,6.3-10.1,11.3-17.2,14.3
		c-9,3.8-16.3,0.7-19-8.7c-1.3-4.6-1.6-9.4-2.3-14.1c4.8-1.2,9-1.9,12.9-3.2c10.6-3.4,20.3-8.4,26.2-18.4
		c6.9-11.7,2.2-24.1-10.6-28.2c-11.8-3.8-21.7,0.5-31.4,7.2c-9.7,6.7-20.1,12.5-30.4,18.8c-5.6-9.4-13-16.5-21.6-22.3
		c-2.5-1.7-3.1-3.1-2.2-6.2c1.4-4.3,2.5-8.9,2.4-13.4c-0.2-7.3-7.1-10.2-13.1-6c-8.7,6.2-9.9,15.6-2.7,23.6c2,2.2,2.5,4,1.6,6.8
		c-3.1,10.2-5.6,20.6-9.2,30.6c-3.6,10.1-8.1,19.9-12.6,29.7c-1,2.3-3.4,3.9-5.2,5.8c-0.4-0.1-0.9-0.2-1.3-0.4
		c-0.4-1.6-1.3-3.2-1.2-4.7c0.2-4.7,0.4-9.5,1.3-14.1c3.8-18.6,7.9-37.2,12.1-55.8c0.6-2.7-0.2-3.7-2.6-3.5
		c-4.7,0.5-9.4,1.1-13.9,2.1c-5.5,1.2-7.8,4.9-9.1,10.5c-3.5,15.1-7.3,30.1-11.8,44.9c-1.9,6.3-5.5,12.3-9.2,17.9
		c-2.8,4.2-7.3,3.3-8.7-1.7c-0.9-3.3-1.5-7-1.1-10.4c1.8-13.8,3.9-27.5,6.2-41.2c1.2-6.9,3-13.6,4.7-20.9c-7.8-0.6-15,0-21.6,3.5
		c-1.3,0.7-2.6,2.6-2.9,4.1c-1.6,9-3.1,18.1-4.2,27.2c-0.7,5.7-3.7,9.9-9.6,11.7c1.2-4.6,2.6-9.1,3.5-13.6
		c1.8-9.2,2.8-18.5-0.6-27.6c-3.5-9.3-11.6-11.9-19.9-6.4c-1.9,1.2-3.6,2.9-5.1,4.6c-10.2,12.4-11.8,41.1,9.7,49.4
		c-0.6,1.7-1.1,3.5-1.9,5.2c-3,6.6-6.4,12.9-12.8,16.8c-5.4,3.4-10.5,2-12.9-3.9c-1.3-3.3-2.1-7-2.3-10.6
		c-0.8-11.5,1.4-22.6,4.5-33.5c2.3-8.2,4.6-16.4,11.2-22.5c0.6-0.6,0.6-1.8,1.2-3.6c-2.4,0.5-3.9,0.6-5.4,1.2
		c-21.1,8-36,32.3-33.9,54.8c0.1,1.4,0.2,3.1-0.5,4.3c-2.3,4.3-4.8,8.4-7.5,12.4c-1,1.5-2.9,2.5-4.3,3.7c-0.5-0.2-1-0.5-1.4-0.7
		c0.2-3.1,0-6.3,0.7-9.3c2.5-11.2,5.5-22.3,8-33.4c1.9-8.3,3.3-16.8,1.2-25.3c-2.1-8.7-9.9-12.5-17.8-8.4c-3.4,1.7-6.8,4.2-9.2,7.1
		c-4.7,5.7-8.8,11.9-12.8,18.1c-2.6,4-4.5,8.4-6.7,12.6c6.8-39,14.3-77.7,25.5-115.9c-6.7-0.9-12.9-0.2-19,2.1
		c-3,1.1-4.8,3.2-5.5,6.4c-2.7,13.2-5.8,26.3-8.2,39.6c-4.8,26.6-9.2,53.2-13.6,79.8c-1.4,8.3-2.6,16.7-3.9,25.1c0,1.4,0,2.7,0,4.1
		c2.6,4.5,7,4.7,11.3,4.2c4.1-0.4,5.5-3.9,6.5-7.4c1.6-5.3,3.1-10.6,4.8-15.9c5-15,10.6-29.8,19.5-43c1.9-2.8,4.4-5.1,6.8-7.4
		c0.7-0.6,2.5-0.8,3.3-0.3c0.8,0.5,1.2,2,1.1,3.1c-0.1,1.7-0.7,3.4-1.1,5.1c-2.7,11.8-5.8,23.6-7.9,35.5c-1.5,8.5-0.4,17.1,4.4,24.6
		c5.3,8.5,12.9,9.4,19.7,2c3.4-3.7,6.2-8,9.3-12c0.3,0.6,0.7,1.4,1.1,2.1c9.3,17.5,26.5,20.7,41.3,7.5c6.7-6,11.7-13.4,15.6-21.5
		c0.6-1.3,1.3-2.9,2.4-3.5c3.3-2,6.9-3.5,10.5-5.3c0.5,4.5,0.8,9.1,1.5,13.6c1.1,6.9,3.1,13.4,7.9,18.8c6.3,7.1,14.8,7.4,21.1,0.4
		c3.4-3.8,5.9-8.3,8.5-12.7c1.6-2.7,2.7-5.7,4.4-9.3c0.4,3.1,0.4,5.5,1.1,7.6c1.6,4.8,2.9,9.9,5.6,14.1c4.3,6.6,10.3,7,16.2,1.9
		c2.4-2.1,4.6-4.6,6.4-7.3c7.5-10.7,12.2-22.8,16.3-35.1c2.8-8.4,5.7-16.7,8.8-25.8c6.3,7.2,8.3,15.2,10,23.4c0.7,3.3-0.5,5-2.8,7.1
		c-5.8,5.6-11.5,11.4-16.5,17.7c-3.6,4.5-5.1,10.1-4.4,16c0.6,5.6,4.1,9.5,9.6,9.7c4.4,0.2,9.1,0.1,13.1-1.3
		c15.2-5.5,22.6-17.6,24.2-33c0.7-6.8-0.8-13.8-1.4-21.5c4.5-2.7,9.9-6,15.4-9.4c-0.1,1.8-0.7,3-1.3,4.1
		c-5.6,11.6-8.6,23.6-5.2,36.5c5,18.8,28.7,31.6,49.8,15.4c14.4-11.1,23.7-25.7,29.3-42.8C386,157.9,385.8,156.5,386,154.8z
		 M337.6,135c1.7-3.2,3.5-6.8,8.1-6c2.8,0.5,4.3,4.8,3.5,9.8c-1.3,8.2-3.3,16.2-8.8,22.6c-3.1,3.5-7.2,6.2-10.8,9.2
		c-0.4-0.4-0.8-0.8-1.3-1.2C330.2,157.7,331.9,145.8,337.6,135z M150.4,160.1c-0.2,3.8-1.5,7.6-2.3,11.7
		c-7.9-3.1-11.7-11.1-10.1-20.7c0.4-2.4,0.9-4.9,2.2-6.8c1.1-1.7,3.5-3.6,5.2-3.5c1.7,0.1,4.3,2.5,4.6,4.2
		C150.6,149.9,150.7,155.1,150.4,160.1z M269.5,199.3c-0.3,0.5-0.6,0.9-0.9,1.3c-2,2.3-4.1,4.8-7.5,3.4c-3.6-1.4-3.5-4.9-2.5-7.6
		c2-5.1,4.2-10.2,7.2-14.7c2.6-4,6.4-7.2,9.7-10.7c0.3,0.2,0.7,0.4,1,0.6C276.3,181.4,274.4,190.7,269.5,199.3z"/>
	<path class="st0" d="M392.6,185.7c-7.9,0-15,6.8-15,14.4c0,6.9,5.1,12,12,12c7.9-0.1,14.8-7.1,14.8-15.2
		C404.3,190.6,399.2,185.7,392.6,185.7z"/>
	<path class="st0" d="M628.2,140.3c-0.1-1.4-0.3-2.9-0.5-4.6c-0.1-0.8-0.3-1.7-0.5-2.7c-0.2-1-0.5-2.1-1-3.4
		c-0.5-1.3-1.4-2.9-2.8-4.3c-0.7-0.7-1.5-1.3-2.4-1.8c-0.8-0.5-1.7-0.8-2.5-1c-0.4-0.1-0.7-0.2-1.2-0.3l-0.7-0.1l-0.3,0l-0.1,0
		l-0.3,0l-0.1,0c0.1,0-0.5-0.1-0.4,0l-0.3,0c-0.7,0-1.3,0-2,0.1c-1.2,0.2-2.2,0.6-3,1c-0.8,0.4-1.4,0.9-1.9,1.3
		c-1,0.9-1.7,1.7-2.3,2.5c-0.6,0.8-1.1,1.5-1.5,2.3c-0.8,1.5-1.5,2.9-2.1,4.3c-1.2,2.8-2.1,5.5-2.8,8.3c-0.7,2.5-1.5,6.2-2.5,8.7
		c-2.2,4.2-4.5,8.4-7.1,12.3c-3.6,5.5-8.7,9.8-15,12.4c-7.7,3.3-13.9,0.7-16.4-7.2c-1.2-4-1.4-8.4-2.1-12.3
		c5.7-1.7,10.7-2.8,15.5-4.6c7.5-2.9,14.2-7.2,18.4-14.4c5.9-10.2,1.8-20.8-9.3-24.4c-6.6-2.1-13-1.6-19.1,1.4
		c-15.1,7.4-22,20.4-24.5,36.2c-0.6,3.9,0.8,8.2-0.5,11.8c-1.6,4.6-4.9,8.7-7.7,12.8c-0.7,1-2.3,1.3-3.5,1.9
		c-0.2-1.3-0.9-2.7-0.6-3.9c1.7-8.2,4.1-16.4,5.4-24.7c1.5-9,2.5-18.1,3-27.1c0.2-4.3-0.6-9.4-5.5-11.3c-4.8-1.9-9.1,0.5-12.9,3.5
		c-1.2,0.9-2.4,1.9-3.3,3.1c-3,4-5.9,8.1-8.9,12.2c-0.5,0.6-0.9,1.3-1,1.3c-0.8-5-1.2-10.2-2.7-15.2c-1.5-5.1-5.7-7-10.6-4.8
		c-3.7,1.7-7.6,4.1-10.1,7.3c-5.2,6.7-9.5,14.1-14.1,21.3c-0.7,1-1.2,2.2-1.8,3.3c-0.2-0.1-0.4-0.2-0.6-0.3
		c2.4-10.2,4.8-20.4,7.5-31.7c-5,0.4-9.3,0.5-13.5,1.1c-6.2,1-7.3,2.5-8,8.7c-1.5,13.1-3.1,26.3-4.6,39.4
		c-0.8,6.6-1.6,13.2-2.3,19.9c-0.2,1.6-0.7,3.6,2.1,3.9c5.3,0.6,12.3-4.1,14-9.2c2.5-7.9,4.9-15.9,7.8-23.6
		c3.8-10.2,8.1-20.2,15.4-28.5c1.3-1.5,3.6-2.1,5.5-3.1c0.1,2.1,0.8,4.3,0.3,6.1c-2.3,8.1-5.4,16-7.2,24.2c-1.8,8-2.7,16.3-3.6,24.5
		c-0.2,1.7,1.2,5,2.3,5.2c2.1,0.5,4.7-0.4,6.8-1.4c1.5-0.7,2.7-2.3,3.5-3.8c1.9-3.5,3.5-7.1,5.2-10.7c4.5-10.2,8.7-20.4,13.4-30.5
		c1.9-4.1,4.7-7.8,7.5-11.4c1-1.3,3.3-1.4,5.1-2.1c-0.1,1.6,0.2,3.4-0.3,4.9c-2.5,8.9-5.7,17.6-7.8,26.5c-2,8.8-2.4,18,1.7,26.5
		c4.2,8.8,11.9,10,18.4,2.9c3-3.3,5.4-7.1,8.1-10.7c7.2,15.2,26.8,22.9,44.2,7.9c8-6.9,14.2-15.1,18.7-24.3l0,0
		c0.1-0.2,0.2-0.4,0.3-0.7c0.3-0.5,0.5-1.1,0.7-1.6c2-4.2,4.3-8,6.4-11.8c0.6-1.1,1.3-2.2,2-3.2c0.7-1,1.5-1.9,2.1-2.3
		c0.2-0.2,0.4-0.3,0.5-0.3c0,0,0.1,0,0.2,0c0.2,0,0.2,0,0.3,0.1c0.1,0,0.1,0,0.2,0.1c0.3,0.1,0.4,0.2,0.5,0.3
		c0.1,0.1,0.3,0.3,0.4,0.7c0.3,0.8,0.4,2,0.5,3.2c0.1,1.2,0.1,2.6,0.1,3.9c0,2.7-0.1,5.4,0,8.1c0,5.1-0.8,10.4-1.9,15.5
		c-1.1,5.1-2.7,10.2-4.7,15c-2.1,4.8-4.7,9.3-8.1,13c-3.4,3.7-7.7,6.4-12.6,7.2c-1.2,0.2-2.4,0.3-3.7,0.3l-4.1,0l-8.1,0
		c-10.8,0.1-21.7,0.2-32.5,0.6c-5.4,0.2-10.8,0.4-16.2,0.7c-5.4,0.3-10.8,0.6-16.2,1c-10.8,0.8-21.6,1.8-32.4,2.9
		c-10.7,1.1-21.4,2.3-32.1,3.6c-1.7-0.2-3.6-0.8-5.2-1.5c-1.7-0.7-3.4-1.7-4.9-2.8c-3-2.3-5.5-5.3-7.2-8.7c-0.8-1.7-1.5-3.5-2.1-5.4
		c-0.5-1.9-0.9-3.8-1.1-5.7c-0.3-1.9-0.4-3.9-0.4-5.8c0-1.9,0-4,0.1-6c0.1-2,0.1-3.9,0.3-5.9c0.1-2,0.2-4,0.4-5.9l0.3-3l0.3-3
		c0.2-2,0.5-3.9,0.8-5.9c0.3-2,0.6-3.9,1-5.9c0.3-2,0.7-3.9,1.1-5.8c0.8-3.9,1.7-7.8,2.8-11.5l-1.6-0.5c-1,1.8-1.8,3.7-2.6,5.6
		c-0.8,1.9-1.6,3.8-2.4,5.7c-0.7,1.9-1.4,3.8-2.1,5.8c-0.7,1.9-1.3,3.9-1.9,5.9c-0.6,2-1.1,4-1.6,6l-0.7,3l-0.7,3
		c-0.5,2-0.8,4.1-1.2,6.1c-0.4,2-0.7,4.2-1,6.3l-0.4,3l-0.2,1.5l-0.1,0.7l0,0.4l0,0.5c-0.2,2.3-0.3,4.6-0.2,7
		c0.1,2.4,0.4,4.8,0.9,7.3c0.5,2.5,1.2,5,2.3,7.5c2.1,5,5.5,9.8,9.9,13.5c2.2,1.9,4.6,3.5,7.2,4.7c1.3,0.6,2.6,1.2,4.1,1.7
		c0.7,0.2,1.4,0.5,2.2,0.7c0.4,0.1,0.8,0.2,1.2,0.3l0.7,0.1l0.4,0.1c0.2,0,0.2,0,0.6,0.1l0.7,0.1l2-0.1l64.1-3.4l8-0.4l7.9-0.3
		c5.3-0.2,10.6-0.4,15.9-0.6l32-0.8l8.1-0.2l4.1-0.1c2.1-0.1,4.3-0.3,6.4-0.7c4.3-0.8,8.4-2.5,12-4.7c3.6-2.2,6.6-4.9,9.1-7.7
		c2.5-2.8,4.5-5.8,6.2-8.8c1.7-3,3-6,4.2-9c2.2-6,3.7-11.9,4.6-17.9c0.9-6,1.4-11.9,0.9-18.5L628.2,140.3z M565.6,119.1
		c0.3-0.5,0.5-1.2,1-1.4c1.8-1.1,3.7-2.9,5.5-2.8c2.8,0.1,3.4,3.2,3.2,5.4c-0.7,10.8-3.6,20.7-12.9,27.5c-1.4,1.1-3.2,1.7-5.4,2.9
		C558.9,139.3,560.4,128.7,565.6,119.1z"/>
	<path class="st0" d="M653.5,133.8c-1.9-1.6-4.7-3.9-8-7c-3.4-3.1-7.4-6.9-11.9-11.3c-4.5-4.5-9.4-9.6-14.7-15.3
		c-5.3-5.7-10.9-12-16.9-18.6c-6-6.7-12.2-13.8-18.9-21c-6.6-7.3-13.7-14.7-21.3-22c-3.8-3.7-7.8-7.3-12.1-10.8
		c-2.2-1.8-4.4-3.5-7-5.2c-1.3-0.9-2.7-1.7-4.3-2.5c-0.8-0.4-1.7-0.8-2.7-1.2c-0.5-0.2-1.1-0.4-1.7-0.5c-0.3-0.1-0.6-0.1-0.9-0.2
		l-0.7-0.1c-0.2,0-0.5-0.1-0.6-0.1l-0.2,0c0.2,0-0.4,0-0.4,0l-0.2,0l-0.6,0c-0.4,0-0.8,0-1.2,0c-0.8,0-1.6,0-2.5,0.1
		c-1.6,0.1-3.2,0.3-4.8,0.6c-3.1,0.6-6,1.4-8.8,2.5c-5.6,2.1-10.6,4.8-15.2,7.7c-9.3,5.9-17.3,12.8-24.7,19.7
		c-7.3,7-13.9,14.1-19.9,21c-6,6.9-11.4,13.6-16.3,19.9c-4.8,6.4-9,12.2-12.7,17.6c-3.7,5.3-6.7,10-9.2,14c-2.4,4-4.1,7.2-5.2,9.5
		c-0.5,1.1-0.9,2.1-1.1,2.7c-0.2,0.6-0.3,1.1-0.3,1.1l1.8,0.4c0,0,0.1-0.2,0.3-0.7c0.3-0.5,0.7-1.3,1.4-2.3c1.3-2,3.4-4.9,6.2-8.5
		c2.8-3.6,6.4-7.9,10.6-12.7c4.2-4.8,9-10.1,14.3-15.9c5.3-5.8,11.1-12,17.4-18.3c6.3-6.3,13.2-12.8,20.6-18.9
		c7.4-6.2,15.3-12.1,23.7-16.9c4.2-2.3,8.6-4.4,12.9-5.7c2.2-0.6,4.3-1.1,6.4-1.4c1-0.1,2.1-0.2,3.1-0.2c0.5,0,1,0,1.5,0.1
		c0.2,0,0.5,0,0.7,0.1l0.4,0l0.1,0c0.1,0-0.4,0-0.2,0l0.2,0c0.2,0,0,0-0.1,0c-0.1,0-0.1,0-0.2,0c0,0,0,0,0,0c0,0,0.1,0.1,0.2,0.1
		c0.2,0.1,0.5,0.3,0.9,0.5c0.7,0.4,1.5,1,2.4,1.7c1.7,1.3,3.5,3,5.2,4.6c3.5,3.4,7,7.1,10.4,10.8c6.9,7.5,13.7,15,20.7,22
		c6.9,7.1,13.8,13.8,20.5,20c6.7,6.2,13.3,11.9,19.6,16.9c6.3,5,12.3,9.4,17.7,13c5.5,3.6,10.4,6.5,14.6,8.7
		c4.2,2.2,7.6,3.7,9.9,4.6c2.3,0.9,3.6,1.4,3.6,1.4l0.9-1.6C656.4,136.2,655.4,135.4,653.5,133.8z"/>
</g>
</svg>
