<?xml version="1.0" encoding="utf-8"?>
<!-- Generator: Adobe Illustrator 19.1.0, SVG Export Plug-In . SVG Version: 6.00 Build 0)  -->
<!DOCTYPE svg PUBLIC "-//W3C//DTD SVG 1.1//EN" "http://www.w3.org/Graphics/SVG/1.1/DTD/svg11.dtd">
<svg version="1.1" id="Capa_1" xmlns="http://www.w3.org/2000/svg" xmlns:xlink="http://www.w3.org/1999/xlink" x="0px" y="0px"
	 width="34.3px" height="34.3px" viewBox="-462 263.8 34.3 34.3" style="enable-background:new -462 263.8 34.3 34.3;"
	 xml:space="preserve">
<path d="M-444.9,263.8c-9.5,0-17.1,7.7-17.1,17.1s7.7,17.1,17.1,17.1c9.5,0,17.1-7.7,17.1-17.1S-435.4,263.8-444.9,263.8z
	 M-454.4,274.1c0-1.7,1.4-3,3-3c1.7,0,3,1.3,3,3c0,1.7-1.3,3-3,3C-453.1,277.1-454.4,275.8-454.4,274.1z M-439.1,290.7l-1.4,1.5
	c-0.1,0.1-0.2,0.2-0.4,0.2c-0.1,0-0.3-0.1-0.4-0.2l-3.6-3.6l-3.6,3.6c-0.1,0.1-0.2,0.2-0.4,0.2c-0.1,0-0.3-0.1-0.4-0.2l-1.4-1.4
	c-0.1-0.1-0.2-0.2-0.2-0.4c0-0.1,0.1-0.3,0.1-0.4l3.6-3.6l-3.6-3.6c-0.2-0.2-0.2-0.5,0-0.7l1.4-1.4c0.1-0.1,0.2-0.2,0.4-0.2
	c0.1,0,0.3,0.1,0.4,0.2l3.6,3.6l3.6-3.6c0.1-0.1,0.2-0.2,0.4-0.2c0.1,0,0.3,0.1,0.4,0.1l1.4,1.4c0.2,0.2,0.2,0.5,0,0.7l-3.6,3.6
	l3.6,3.6c0.1,0.1,0.2,0.2,0.2,0.4C-439,290.4-439,290.6-439.1,290.7z M-438.3,277.1c-1.7,0-3-1.3-3-3c0-1.7,1.4-3,3-3
	c1.7,0,3,1.3,3,3C-435.3,275.8-436.7,277.1-438.3,277.1z"/>
</svg>
