<?xml version="1.0" encoding="utf-8"?>
<!-- Generator: Adobe Illustrator 19.1.0, SVG Export Plug-In . SVG Version: 6.00 Build 0)  -->
<!DOCTYPE svg PUBLIC "-//W3C//DTD SVG 1.1//EN" "http://www.w3.org/Graphics/SVG/1.1/DTD/svg11.dtd">
<svg version="1.1" id="Capa_1" xmlns="http://www.w3.org/2000/svg" xmlns:xlink="http://www.w3.org/1999/xlink" x="0px" y="0px"
	 width="360px" height="360px" viewBox="-299 101 360 360" style="enable-background:new -299 101 360 360;" xml:space="preserve">
<g>
	<g>
		<g>
			<path d="M-124.9,302.4L15.3,162.1c2.3-2.3,5.9-2.3,8.2,0l35.1,35.1c2.3,2.3,2.3,5.9,0,8.2L-81.7,345.6c-2.3,2.3-5.9,2.3-8.2,0
				l-35.1-35.1C-127.2,308.3-127.2,304.6-124.9,302.4z"/>
			<path d="M-179.2,356.6l31-31c2.3-2.3,5.9-2.3,8.2,0l35.1,35.1c2.3,2.3,2.3,5.9,0,8.2l-31,31c-2.3,2.3-5.9,2.3-8.2,0l-35.1-35.1
				C-181.4,362.5-181.4,358.9-179.2,356.6z"/>
			<path d="M-165.6,306.2c-0.4,1.7-1.3,3.1-2.4,4.2c-2.2,2.2-5.4,3.2-8.6,2.4l-41.2-10.1c-4.2-1-7.1-5-6.9-9.3l2-34.8l-33.9-8.3
				c-4.9-1.2-7.8-6.1-6.6-10.9c1.2-4.9,6.1-7.8,10.9-6.6l41.2,10.1c4.2,1,7.1,5,6.9,9.3l-2,34.8l33.9,8.3
				C-167.4,296.4-164.4,301.3-165.6,306.2z"/>
			<path d="M-259.6,328.4l2-34.8l-33.9-8.3c-4.9-1.2-7.8-6.1-6.6-10.9c1.2-4.9,6.1-7.8,10.9-6.6l41.2,10.1c4.2,1,7.1,5,6.9,9.3
				l-2,34.8l33.9,8.3c4.9,1.2,7.8,6.1,6.6,10.9c-0.4,1.7-1.3,3.1-2.4,4.2c-2.2,2.2-5.4,3.2-8.6,2.4l-41.2-10.1
				C-256.9,336.7-259.8,332.8-259.6,328.4z"/>
		</g>
	</g>
</g>
</svg>
