<?xml version="1.0" encoding="utf-8"?>
<!-- Generator: Adobe Illustrator 19.1.0, SVG Export Plug-In . SVG Version: 6.00 Build 0)  -->
<!DOCTYPE svg PUBLIC "-//W3C//DTD SVG 1.1//EN" "http://www.w3.org/Graphics/SVG/1.1/DTD/svg11.dtd">
<svg version="1.1" id="Capa_1" xmlns="http://www.w3.org/2000/svg" xmlns:xlink="http://www.w3.org/1999/xlink" x="0px" y="0px"
	 width="303.3px" height="303.3px" viewBox="-327 129.7 303.3 303.3" style="enable-background:new -327 129.7 303.3 303.3;"
	 xml:space="preserve">
<path d="M-29,135c-7-7-18.3-7-25.3,0l-97.5,97.5l-17.6-17.6c-5.9-5.9-15.4-5.9-21.2,0l-10.6,10.6c-25.6,6.1-51.2,12.2-76.8,18.3
	l-40.9,9.8c-3.4,0.8-6.2,3.3-7.4,6.6c-1.2,3.3-0.7,7,1.4,9.8c45.3,61.5,99.4,115.7,160.9,160.9c1.8,1.3,4,2,6.2,2
	c1.2,0,2.4-0.2,3.6-0.6c3.3-1.2,5.8-4,6.6-7.4l12.2-51.2c5.3-22.2,10.6-44.3,15.8-66.5l10.6-10.6c5.9-5.9,5.9-15.4,0-21.2
	l-17.6-17.6l97.5-97.5C-22,153.3-22,142-29,135z M-164.3,404.5c-8.5-6.6-16.9-13.3-25.1-20.3l13.8-39l-27.3,27.3
	c-9.8-8.7-19.4-17.7-28.8-26.9L-218,324l-21.8,13.7c-8.6-8.7-16.9-17.6-25-26.7l27.4-27.4l-39.2,13.9c-7.5-8.9-14.8-17.9-21.9-27.1
	L-205,248l63,63L-164.3,404.5z"/>
</svg>
