<?xml version="1.0" encoding="utf-8"?>
<!-- Generator: Adobe Illustrator 19.1.0, SVG Export Plug-In . SVG Version: 6.00 Build 0)  -->
<!DOCTYPE svg PUBLIC "-//W3C//DTD SVG 1.1//EN" "http://www.w3.org/Graphics/SVG/1.1/DTD/svg11.dtd">
<svg version="1.1" id="Capa_1" xmlns="http://www.w3.org/2000/svg" xmlns:xlink="http://www.w3.org/1999/xlink" x="0px" y="0px"
	 width="419.1px" height="419.1px" viewBox="-269 71.9 419.1 419.1" style="enable-background:new -269 71.9 419.1 419.1;"
	 xml:space="preserve">
<g>
	<g>
		<path d="M-207.3,301.7c-5.2,26.1,11.4,51.7,37.5,57.4c26.4,5.7,52.5-11.1,58.1-37.4l8-73.6c-26.4-14.3-16.7,45-62.2,35.2
			C-197.1,276.4-205.6,296.5-207.3,301.7z"/>
		<path d="M131.3,390.1c-2.1-6.2-8.8-9.6-14.9-7.5l-32.8,10.9l-20.7-62.1c17-8.3,30.9-21.6,39.5-38.8c10.4-20.8,12.1-44.4,4.4-67.4
			l-54-124.7l-143.5,47.7l9.6,39l-122.6-26.5l-40.4,130.8c-4.9,22.7-0.7,46,11.9,65.5c10.4,16.2,25.7,27.8,43.4,34.3l-13.8,64
			l-33.8-7.3c-6.4-1.3-12.7,2.7-14,9.1c-1.4,6.4,2.7,12.7,9.1,14l45.2,9.8c0,0,0.1,0,0.1,0c0.1,0,0.1,0,0.2,0l45.2,9.8
			c0.8,0.2,1.7,0.3,2.5,0.3c5.4,0,10.3-3.8,11.5-9.3c1.4-6.4-2.7-12.7-9.1-14l-33.8-7.3l13.8-63.7c2.3,0.2,4.5,0.4,6.8,0.4
			c40.6,0,76.3-28.9,85.1-69.6l9.6-71.9l6.3,25.6c11.8,35.6,45,59.6,82.5,59.6c5.4,0,10.7-0.6,16-1.6L61.1,401l-32.8,10.9
			c-6.2,2.1-9.6,8.8-7.5,14.9c1.7,5,6.3,8.1,11.2,8.1c1.2,0,2.5-0.2,3.7-0.6l88-29.3C130,403,133.4,396.3,131.3,390.1z M-97.2,323.4
			c-7.2,33.4-41.6,55.8-75.3,48.5l0,0h0c-16.6-3.6-30.7-13.4-39.9-27.6c-9.2-14.2-12.3-31.2-8.9-46.7l33.8-109.1l105.3,22.8
			L-97.2,323.4z M-35.3,274.6l-27.2-110.8l102.3-34l45,103.9c5.4,16.1,4.1,33.3-3.5,48.4c-7.6,15.1-20.6,26.4-36.7,31.8
			c-6.5,2.2-13.3,3.3-20,3.3C-2.8,317.1-27,299.6-35.3,274.6z"/>
		<path d="M71.6,240.3c-2.3-5-12.9-24-43.2-13.9c-44.2,14.7-41-45.3-65.7-28.2l15.9,72.3c8.5,25.6,36.3,39.5,61.8,31
			C65.7,292.9,79.5,265.7,71.6,240.3z"/>
		<path d="M-132,98.6c7.4-0.4,13-6.7,12.6-14.1c-0.4-7.4-6.7-13-14.1-12.6c-7.4,0.4-13,6.7-12.6,14.1C-145.7,93.3-139.4,99-132,98.6
			z"/>
		<path d="M-80.4,121.9c7.4-0.4,13-6.7,12.6-14.1c-0.4-7.4-6.7-13-14.1-12.6c-7.4,0.4-13,6.7-12.6,14.1
			C-94,116.7-87.7,122.3-80.4,121.9z"/>
		<path d="M-139.5,133.1c0.4,7.4,6.7,13,14.1,12.6c7.4-0.4,13-6.7,12.6-14.1c-0.4-7.4-6.7-13-14.1-12.6
			C-134.2,119.5-139.9,125.8-139.5,133.1z"/>
	</g>
</g>
</svg>
