<?xml version="1.0" encoding="utf-8"?>
<!-- Generator: Adobe Illustrator 19.1.0, SVG Export Plug-In . SVG Version: 6.00 Build 0)  -->
<!DOCTYPE svg PUBLIC "-//W3C//DTD SVG 1.1//EN" "http://www.w3.org/Graphics/SVG/1.1/DTD/svg11.dtd">
<svg version="1.1" id="Capa_1" xmlns="http://www.w3.org/2000/svg" xmlns:xlink="http://www.w3.org/1999/xlink" x="0px" y="0px"
	 width="885.9px" height="885.9px" viewBox="-36 -162.9 885.9 885.9" style="enable-background:new -36 -162.9 885.9 885.9;"
	 xml:space="preserve">
<g>
	<g>
		<path d="M719.1-32.1c1.4-33.9-10.8-68.2-36.7-94.1c-49.1-49.1-128.4-48.8-177.5,0.3c-38.8,38.8-47.5,96-24.2,143.6L144.6,353.9
			C97,330.6,39.8,339.3,1,378.1c-49.1,49-49.3,128.5-0.2,177.6c25.9,25.9,60.1,38,94,36.6c-1.4,33.9,10.8,68.2,36.7,94
			c49.1,49.1,128.4,48.8,177.5-0.3c38.8-38.8,47.4-96,24.1-143.6l336.1-336.1c47.6,23.3,104.8,14.6,143.6-24.2
			C861.9,133,862.1,53.5,813,4.4C787.1-21.4,753-33.5,719.1-32.1z"/>
	</g>
</g>
</svg>
