<?xml version="1.0" encoding="utf-8"?>
<!-- Generator: Adobe Illustrator 19.1.0, SVG Export Plug-In . SVG Version: 6.00 Build 0)  -->
<!DOCTYPE svg PUBLIC "-//W3C//DTD SVG 1.1//EN" "http://www.w3.org/Graphics/SVG/1.1/DTD/svg11.dtd">
<svg version="1.1" id="Layer_1" xmlns="http://www.w3.org/2000/svg" xmlns:xlink="http://www.w3.org/1999/xlink" x="0px" y="0px"
	 width="64px" height="64px" viewBox="0 0 64 64" style="enable-background:new 0 0 64 64;" xml:space="preserve">
<style type="text/css">
	.st0{fill:#FFFFFF;}
</style>
<g>
	<path class="st0" d="M53.4,13.3H11.9c-1.1,0-1.9,0.9-1.9,1.9v29.1c0,1.1,0.9,1.9,1.9,1.9h7.5v5.5c0,1.5,1,2,2.2,1.1l8.8-6.6h23
		c1.1,0,1.9-0.9,1.9-1.9V15.2C55.3,14.2,54.4,13.3,53.4,13.3L53.4,13.3z M22.2,32.5c-1.6,0-3-1.3-3-3c0-1.6,1.3-3,3-3
		c1.6,0,3,1.3,3,3C25.2,31.2,23.8,32.5,22.2,32.5L22.2,32.5z M32.6,32.5c-1.6,0-3-1.3-3-3c0-1.6,1.3-3,3-3c1.6,0,3,1.3,3,3
		C35.6,31.2,34.3,32.5,32.6,32.5L32.6,32.5z M43.1,32.5c-1.6,0-3-1.3-3-3c0-1.6,1.3-3,3-3c1.6,0,3,1.3,3,3
		C46,31.2,44.7,32.5,43.1,32.5L43.1,32.5z"/>
</g>
</svg>
