<?xml version="1.0" encoding="utf-8"?>
<!-- Generator: Adobe Illustrator 19.1.0, SVG Export Plug-In . SVG Version: 6.00 Build 0)  -->
<!DOCTYPE svg PUBLIC "-//W3C//DTD SVG 1.1//EN" "http://www.w3.org/Graphics/SVG/1.1/DTD/svg11.dtd">
<svg version="1.1" id="Layer_1" xmlns="http://www.w3.org/2000/svg" xmlns:xlink="http://www.w3.org/1999/xlink" x="0px" y="0px"
	 width="64px" height="64px" viewBox="0 0 64 64" style="enable-background:new 0 0 64 64;" xml:space="preserve">
<style type="text/css">
	.st0{fill:#FFFFFF;}
</style>
<g>
	<g>
		<path class="st0" d="M18.9,42.9c2.5,5.4,7.2,11,13.1,11c5.9,0,10.5-5.6,13.1-11c2-0.4,3.9-2.3,4.8-4.8c1.1-3.2,0.3-6.3-1.7-7.6
			c0-0.1,0-0.1,0-0.2c0-0.3-0.2-0.5-0.4-0.6c0.6-1,1.1-2.5,1-4.9c0-0.9-0.1-1.9-0.3-3c-1.4-9-15.8-16.1-22.2-9.1c0,0-4.9-1-8.4,4
			c-1.4,2-3.5,6.1-3.3,9.5c0.1,1.3,0.5,2.6,1.4,3.5c-0.1,0.1-0.2,0.3-0.3,0.5c0,0.1,0,0.1,0,0.2c-0.9,0.6-1.7,1.6-2,2.8
			c-0.4,1.4-0.3,3.1,0.3,4.7C15,40.7,16.9,42.5,18.9,42.9L18.9,42.9z M27.3,21.9c0,0,13.1,8.9,14.4,3.3c0,0,2.4,1.7,3.3,5.2
			c-1,0.5-1.7,1.3-2.3,1.9c-0.8-1.6-2.5-2.7-4.4-2.7c-1.9,0-3.5,1.1-4.4,2.6c-1.2-0.4-2.6-0.4-3.8,0c-0.9-1.5-2.5-2.6-4.4-2.6
			c-1.9,0-3.6,1.1-4.4,2.7c-0.6-0.6-1.3-1.3-2.2-1.9C19.8,28.2,22.1,23,27.3,21.9L27.3,21.9z M35.7,33.4c-0.1-0.1-0.2-0.1-0.2-0.2
			c0.5-1,1.6-1.7,2.8-1.7c1.7,0,3.2,1.4,3.2,3.2c0,1.7-1.4,3.2-3.2,3.2c-1.6,0-3-1.3-3.1-2.9c0.2,0,0.4-0.1,0.6-0.2
			C36.1,34.3,36.1,33.7,35.7,33.4L35.7,33.4z M28.3,34.7c0.2,0.2,0.4,0.2,0.6,0.2c-0.2,1.6-1.5,2.9-3.1,2.9c-1.7,0-3.2-1.4-3.2-3.2
			c0-1.7,1.4-3.2,3.2-3.2c1.2,0,2.2,0.7,2.8,1.7c-0.1,0.1-0.2,0.1-0.2,0.2C27.9,33.7,27.9,34.3,28.3,34.7L28.3,34.7z M20.7,34.5
			C20.7,34.6,20.7,34.6,20.7,34.5c0,2.9,2.2,5.1,5,5.1c2.8,0,5-2.3,5-5c0-0.2,0-0.5-0.1-0.7c0.8-0.3,1.8-0.3,2.6,0
			c0,0.2-0.1,0.4-0.1,0.7c0,2.8,2.3,5,5,5c2.8,0,5-2.3,5-5c0,0,0-0.1,0-0.1c0.3-0.4,1.1-1.6,2.4-2.4c0.2,0.2,0.4,0.3,0.7,0.3
			c0.1,0,0.2,0,0.3,0c1.1,0.4,1.7,2.4,0.9,4.8c-0.7,2.1-2.2,3.2-3.3,3.2h0c-0.5,0-0.9,0.3-1.1,0.7C41,46.2,36.9,51.5,32,51.5
			c-4.9,0-9-5.3-11.1-10.2c-0.2-0.5-0.7-0.7-1.2-0.7c-1,0-2.5-1.1-3.3-3.2C16,36.2,16,35,16.2,34c0.1-0.5,0.4-1.3,1.2-1.5
			c0.1,0,0.2,0,0.3,0c0.3,0,0.5-0.2,0.7-0.3C19.6,32.9,20.4,34.1,20.7,34.5L20.7,34.5z M20.7,34.5"/>
	</g>
</g>
</svg>
